PathFileType	4	(X/Y/Z)	OpenSim_Sub11_EMGPreOp_Magnet.trc
DataRate	CameraRate	NumFrames	NumMarkers	Units	OrigDataRate	OrigDataStartFrame	OrigNumFrames
100	100	27	8	m	100	736	5885
Frame#	Time	torso_imu_offset_imu	pelvis_imu_offset_imu	tibia_r_imu_offset_imu	femur_r_imu_offset_imu	tibia_l_imu_offset_imu	femur_l_imu_offset_imu	toes_r_imu_offset_imu	toes_l_imu_offset_imu
				X1	Y1	Z1	X2	Y2	Z2	X3	Y3	Z3	X4	Y4	Z4	X5	Y5	Z5	X6	Y6	Z6	X7	Y7	Z7	X8		Y8	Z8	

736	7.35000000	-0.92186098	-0.20564482	0.03876096	-0.52179921	0.09247567	-0.65690049	-0.30753271	-0.72250211	-0.26050035	-0.71069040	-0.41533596	0.05524533	-0.71276828	0.38766215	0.20466478	-0.66961027	0.13964116	0.42583104	-0.72898522	-0.47030680	-0.18002038	-0.72810367	-0.07471271	-0.31566208
737	7.36000000	-0.91438486	-0.20950046	0.03808579	-0.51855880	0.09180869	-0.66210377	-0.29435497	-0.72886782	-0.25960721	-0.71540575	-0.40581691	0.04972266	-0.70999047	0.38813565	0.19834247	-0.66685445	0.14157183	0.42171911	-0.72578737	-0.47704602	-0.17158586	-0.72636678	-0.07513891	-0.31981615
738	7.37000000	-0.92289775	-0.21145313	0.03785639	-0.52100554	0.08727962	-0.66302275	-0.28608112	-0.73057897	-0.25579249	-0.72709337	-0.40085774	0.05172519	-0.71491270	0.38252733	0.19971154	-0.67015332	0.13699447	0.42027982	-0.72769582	-0.48879274	-0.16523705	-0.73081513	-0.08058216	-0.32377035
739	7.38000000	-0.92544390	-0.20733991	0.04332750	-0.51619592	0.09605781	-0.66672185	-0.28384786	-0.73208398	-0.25537833	-0.72633806	-0.38177100	0.05115721	-0.71192837	0.39099872	0.19982129	-0.66413338	0.14913429	0.42207857	-0.71946269	-0.48271120	-0.16809375	-0.72912700	-0.07176527	-0.32551426
740	7.39000000	-0.92066005	-0.20820172	0.03799918	-0.51176923	0.09219864	-0.66130228	-0.28459744	-0.73252860	-0.25484522	-0.72820288	-0.37802108	0.05694435	-0.71085409	0.38671145	0.20637406	-0.66114861	0.14947756	0.42891502	-0.71013105	-0.48943070	-0.16780871	-0.72821893	-0.07407525	-0.31990258
741	7.40000000	-0.91689913	-0.21128841	0.04242252	-0.51011600	0.09858826	-0.66297545	-0.27960134	-0.73004548	-0.26362985	-0.72945696	-0.36880709	0.06011171	-0.70847476	0.39182728	0.20807259	-0.65884862	0.15189222	0.42827533	-0.70187780	-0.48808940	-0.17063097	-0.72640738	-0.06974093	-0.31997726
742	7.41000000	-0.92094588	-0.21495478	0.04432049	-0.50346574	0.10051496	-0.66385588	-0.28856435	-0.72124086	-0.27111771	-0.72611441	-0.36472881	0.05864424	-0.70083421	0.38996604	0.21233970	-0.65028098	0.15646879	0.42902600	-0.68824538	-0.48756320	-0.17724686	-0.71883869	-0.07028489	-0.31976485
743	7.42000000	-0.92185288	-0.21345603	0.04799192	-0.51692346	0.09302005	-0.66333008	-0.29553532	-0.71609190	-0.27742730	-0.74259994	-0.36613983	0.05513421	-0.71102209	0.38245061	0.21233281	-0.66143898	0.14820783	0.43097463	-0.69085434	-0.49158020	-0.18874238	-0.73194189	-0.07773492	-0.31998484
744	7.43000000	-0.92480048	-0.21282093	0.04139346	-0.50892106	0.10036570	-0.65756996	-0.31274049	-0.71133270	-0.28306770	-0.73572036	-0.35691148	0.05764935	-0.70464785	0.38946167	0.21861048	-0.65277746	0.15283760	0.43909363	-0.67816495	-0.48363914	-0.19456895	-0.72746783	-0.07199785	-0.31414531
745	7.44000000	-0.92256446	-0.21832095	0.04703052	-0.50653630	0.10498285	-0.66459238	-0.32021628	-0.70572332	-0.27917009	-0.73861614	-0.35169656	0.05351860	-0.70516746	0.39203638	0.21511885	-0.65519980	0.15578254	0.43772097	-0.67466357	-0.47437969	-0.21063823	-0.73168340	-0.06854649	-0.32242365
746	7.45000000	-0.92124993	-0.21611734	0.05073358	-0.50497804	0.10888733	-0.66800752	-0.33034889	-0.69622791	-0.28275439	-0.73951969	-0.34881379	0.04279053	-0.70058389	0.39776255	0.21265129	-0.64964069	0.15926290	0.43567983	-0.66100104	-0.46481487	-0.22985104	-0.72966422	-0.06608848	-0.32751603
747	7.46000000	-0.91458164	-0.21053000	0.05026840	-0.50534046	0.10946374	-0.66682804	-0.34997033	-0.68459606	-0.28998599	-0.74226450	-0.34405268	0.04085547	-0.70299318	0.39847853	0.21539844	-0.65065635	0.15694814	0.44217536	-0.65627198	-0.45651992	-0.24369218	-0.73105913	-0.06247861	-0.32695199
748	7.47000000	-0.91511194	-0.21804155	0.05163659	-0.50924076	0.11556563	-0.66103048	-0.36291328	-0.68220648	-0.29481154	-0.74864196	-0.33536814	0.04444449	-0.70586281	0.40142127	0.22231343	-0.65583542	0.15789314	0.45149970	-0.65237776	-0.44325202	-0.24950042	-0.73851074	-0.05853597	-0.31713290
749	7.48000000	-0.91795673	-0.21808628	0.04868472	-0.50279423	0.12270392	-0.66739385	-0.38186734	-0.66913724	-0.28967542	-0.74472017	-0.33325016	0.03377840	-0.69954699	0.40862140	0.21734390	-0.64943103	0.15896527	0.44798409	-0.63466072	-0.42759603	-0.27100790	-0.73184691	-0.05492950	-0.32714578
750	7.49000000	-0.91624213	-0.21668654	0.05567380	-0.50484623	0.11826262	-0.67191094	-0.40958305	-0.65552772	-0.29643403	-0.74592248	-0.33622907	0.02677937	-0.70029327	0.40621214	0.20982145	-0.65161463	0.15329158	0.44072053	-0.62611414	-0.42212599	-0.29424045	-0.73761154	-0.05527385	-0.33416485
751	7.50000000	-0.91857317	-0.21994729	0.05518448	-0.50763308	0.12361230	-0.66335816	-0.42826593	-0.64145950	-0.29986768	-0.75266657	-0.33440548	0.03231603	-0.70310872	0.40544931	0.21925040	-0.65352209	0.15355720	0.45385118	-0.62132372	-0.41038634	-0.29849165	-0.74084517	-0.05548023	-0.32313975
752	7.51000000	-0.91798960	-0.21980095	0.06431700	-0.50209076	0.13001531	-0.66511650	-0.44741944	-0.62648184	-0.29981502	-0.74919149	-0.32803108	0.03065301	-0.70029725	0.41178542	0.21978164	-0.64807048	0.16104026	0.45273572	-0.60459694	-0.39428577	-0.31462233	-0.73789074	-0.04936700	-0.32587898
753	7.52000000	-0.91874641	-0.21647965	0.06409805	-0.50401296	0.13001008	-0.66294094	-0.47026820	-0.61494324	-0.29661748	-0.75359834	-0.32742561	0.02746125	-0.70068109	0.41336905	0.21963379	-0.64967793	0.15901123	0.45524936	-0.59814489	-0.38429136	-0.32737902	-0.74184536	-0.04902408	-0.32806872
754	7.53000000	-0.91613134	-0.21498695	0.06690379	-0.49949505	0.13415721	-0.66205219	-0.48952627	-0.59813726	-0.28993941	-0.75256685	-0.32452420	0.02485849	-0.69730792	0.41537475	0.22398426	-0.64654967	0.16465169	0.45688758	-0.58634203	-0.37124151	-0.33853150	-0.74104211	-0.04672677	-0.32633791
755	7.54000000	-0.91274524	-0.21376873	0.07074918	-0.49157124	0.13250101	-0.66826555	-0.51144161	-0.58396649	-0.28960322	-0.74796014	-0.32894197	0.01907326	-0.69205774	0.41342976	0.22117462	-0.64011449	0.16311178	0.45394370	-0.57140824	-0.36279204	-0.35273892	-0.73729870	-0.05003029	-0.32863909
756	7.55000000	-0.91974676	-0.21822364	0.06242845	-0.49045253	0.13317189	-0.66480760	-0.53268276	-0.56494558	-0.29708675	-0.74673965	-0.32926066	0.01883410	-0.68996956	0.41797060	0.22046330	-0.63951052	0.16319158	0.45613871	-0.56328208	-0.35505564	-0.36315846	-0.73702232	-0.04659331	-0.32741778
757	7.56000000	-0.91995789	-0.21433518	0.06571811	-0.48998765	0.13601961	-0.67313577	-0.55527828	-0.54204767	-0.29873358	-0.74640564	-0.32938807	0.00647256	-0.69100319	0.42111643	0.21259245	-0.63959792	0.16901442	0.44865155	-0.55708559	-0.34497903	-0.38389889	-0.74089217	-0.04565978	-0.33687169
758	7.57000000	-0.91741992	-0.21672410	0.07409672	-0.49789952	0.14047461	-0.66462447	-0.57797001	-0.51689475	-0.30002886	-0.75145998	-0.33028619	0.01121155	-0.69429820	0.42548189	0.22245097	-0.64519650	0.17364604	0.45653655	-0.55832569	-0.33425399	-0.38338517	-0.74570339	-0.04052890	-0.32903111
759	7.58000000	-0.91574514	-0.21739184	0.06705951	-0.49128965	0.13642221	-0.67041151	-0.59775446	-0.49007114	-0.30359120	-0.74731489	-0.33869432	0.00070089	-0.69210948	0.41834125	0.21657618	-0.64140436	0.17116424	0.45262737	-0.55249933	-0.33147826	-0.39585429	-0.74348479	-0.04452507	-0.33328553
760	7.59000000	-0.91650842	-0.21755673	0.07032645	-0.49456220	0.14455888	-0.66673741	-0.61523713	-0.47187958	-0.30567728	-0.74729319	-0.33792773	0.00043773	-0.69321824	0.42858429	0.21781649	-0.64398961	0.17983655	0.45338656	-0.55031094	-0.31894990	-0.40594334	-0.75128368	-0.03729479	-0.33170443
761	7.60000000	-0.91896605	-0.21494652	0.07742664	-0.48752963	0.13976692	-0.66725764	-0.63004286	-0.44631758	-0.30678996	-0.73868847	-0.34895359	0.00032077	-0.68821604	0.42837243	0.21927083	-0.63825289	0.17817479	0.45512856	-0.54079396	-0.31977297	-0.41567115	-0.74682595	-0.04061205	-0.32822692
762	7.61000000	-0.91597383	-0.21958790	0.07097574	-0.48491531	0.14168495	-0.67157522	-0.64873455	-0.42623980	-0.30577909	-0.73282156	-0.35996562	-0.00847819	-0.68248060	0.42872787	0.21707443	-0.63290403	0.18150245	0.45411511	-0.53188172	-0.31308935	-0.42893480	-0.74344076	-0.03965094	-0.33273788
